<svg xmlns="http://www.w3.org/2000/svg" viewBox="0 0 64 64" width="64" height="64">
  <rect width="64" height="64" rx="15" fill="#0b0c22"/>
  <g transform="translate(5 5) scale(0.84)" fill="none" stroke-linecap="round" stroke-linejoin="round">
    <path d="M24 60C21 46 17 32 12 20" stroke="#9d8cff" stroke-width="5.5"/>
    <g stroke="#9d8cff" stroke-width="4.5">
      <path d="M12 20C8 14 3 14 1 18"/>
      <path d="M12 20C15 12 20 10 25 12"/>
    </g>
    <path d="M28 60C33 44 38 28 42 14" stroke="#7b7df5" stroke-width="5.5"/>
    <path d="M39 24C52 24 53 39 34.5 40C56 40 55 60 28 60" stroke="#7b7df5" stroke-width="5.5"/>
    <g stroke="#7b7df5" stroke-width="4.5">
      <path d="M42 14C38 8 33 7 29 9"/>
      <path d="M42 14C48 9 55 10 59 14"/>
    </g>
    <circle cx="42" cy="18" r="3.4" fill="#2ee6b8" stroke="none"/>
  </g>
</svg>
